<svg width="333" height="61" viewBox="0 0 333 61" fill="none" xmlns="http://www.w3.org/2000/svg">
<g clip-path="url(#clip0_45_2)">
<path d="M15.625 49H4.40341V12.6364H16.1222C19.6496 12.6364 22.6681 13.3643 25.1776 14.8203C27.687 16.2644 29.6106 18.3419 30.9482 21.0526C32.2857 23.7514 32.9545 26.983 32.9545 30.7472C32.9545 34.535 32.2798 37.7962 30.9304 40.5305C29.581 43.2531 27.616 45.3482 25.0355 46.8161C22.455 48.272 19.3182 49 15.625 49ZM8.80682 45.0938H15.3409C18.3475 45.0938 20.8393 44.5137 22.8161 43.3537C24.7929 42.1937 26.2666 40.5424 27.2372 38.3999C28.2079 36.2573 28.6932 33.7064 28.6932 30.7472C28.6932 27.8116 28.2138 25.2843 27.255 23.1655C26.2962 21.0348 24.8639 19.4013 22.9581 18.2649C21.0523 17.1167 18.679 16.5426 15.8381 16.5426H8.80682V45.0938ZM44.7443 12.6364V49H40.3409V12.6364H44.7443ZM64.7949 49H53.5733V12.6364H65.2921C68.8195 12.6364 71.838 13.3643 74.3475 14.8203C76.8569 16.2644 78.7805 18.3419 80.1181 21.0526C81.4557 23.7514 82.1245 26.983 82.1245 30.7472C82.1245 34.535 81.4498 37.7962 80.1003 40.5305C78.7509 43.2531 76.7859 45.3482 74.2054 46.8161C71.6249 48.272 68.4881 49 64.7949 49ZM57.9767 45.0938H64.5108C67.5175 45.0938 70.0092 44.5137 71.986 43.3537C73.9628 42.1937 75.4365 40.5424 76.4071 38.3999C77.3778 36.2573 77.8631 33.7064 77.8631 30.7472C77.8631 27.8116 77.3837 25.2843 76.4249 23.1655C75.4661 21.0348 74.0338 19.4013 72.128 18.2649C70.2222 17.1167 67.8489 16.5426 65.008 16.5426H57.9767V45.0938ZM100.448 12.6364H105.491L115.576 29.6108H116.002L126.088 12.6364H131.13L117.991 34.0142V49H113.588V34.0142L100.448 12.6364ZM143.479 49.5682C141.017 49.5682 138.857 48.9822 136.998 47.8104C135.152 46.6385 133.708 44.9991 132.666 42.892C131.636 40.785 131.121 38.3229 131.121 35.5057C131.121 32.6648 131.636 30.1849 132.666 28.0661C133.708 25.9472 135.152 24.3018 136.998 23.13C138.857 21.9581 141.017 21.3722 143.479 21.3722C145.941 21.3722 148.096 21.9581 149.942 23.13C151.801 24.3018 153.245 25.9472 154.275 28.0661C155.316 30.1849 155.837 32.6648 155.837 35.5057C155.837 38.3229 155.316 40.785 154.275 42.892C153.245 44.9991 151.801 46.6385 149.942 47.8104C148.096 48.9822 145.941 49.5682 143.479 49.5682ZM143.479 45.804C145.349 45.804 146.888 45.3246 148.096 44.3658C149.303 43.407 150.197 42.1463 150.777 40.5838C151.357 39.0213 151.647 37.3286 151.647 35.5057C151.647 33.6828 151.357 31.9841 150.777 30.4098C150.197 28.8355 149.303 27.563 148.096 26.5923C146.888 25.6217 145.349 25.1364 143.479 25.1364C141.609 25.1364 140.07 25.6217 138.863 26.5923C137.655 27.563 136.762 28.8355 136.182 30.4098C135.602 31.9841 135.312 33.6828 135.312 35.5057C135.312 37.3286 135.602 39.0213 136.182 40.5838C136.762 42.1463 137.655 43.407 138.863 44.3658C140.07 45.3246 141.609 45.804 143.479 45.804ZM179.421 37.8494V21.7273H183.612V49H179.421V44.3835H179.137C178.498 45.7685 177.504 46.9463 176.154 47.9169C174.805 48.8757 173.1 49.3551 171.04 49.3551C169.336 49.3551 167.821 48.9822 166.495 48.2365C165.169 47.4789 164.128 46.3426 163.37 44.8274C162.612 43.3004 162.234 41.3769 162.234 39.0568V21.7273H166.424V38.7727C166.424 40.7614 166.98 42.3475 168.093 43.5312C169.218 44.715 170.65 45.3068 172.39 45.3068C173.432 45.3068 174.491 45.0405 175.568 44.5078C176.657 43.9751 177.569 43.1584 178.303 42.0575C179.048 40.9567 179.421 39.554 179.421 37.8494ZM205.917 49V12.6364H210.32V30.6761H210.747L227.082 12.6364H232.835L217.565 29.0426L232.835 49H227.508L214.866 32.0966L210.32 37.2102V49H205.917ZM242.156 32.5938V49H237.966V21.7273H242.014V25.9886H242.369C243.009 24.6037 243.979 23.491 245.281 22.6506C246.584 21.7983 248.264 21.3722 250.324 21.3722C252.171 21.3722 253.786 21.7509 255.171 22.5085C256.556 23.2543 257.633 24.3906 258.403 25.9176C259.172 27.4328 259.557 29.3504 259.557 31.6705V49H255.367V31.9545C255.367 29.812 254.81 28.143 253.698 26.9474C252.585 25.7401 251.058 25.1364 249.117 25.1364C247.779 25.1364 246.584 25.4264 245.53 26.0064C244.488 26.5864 243.666 27.4328 243.062 28.5455C242.458 29.6581 242.156 31.0076 242.156 32.5938ZM278.294 49.5682C275.832 49.5682 273.671 48.9822 271.813 47.8104C269.966 46.6385 268.522 44.9991 267.48 42.892C266.451 40.785 265.936 38.3229 265.936 35.5057C265.936 32.6648 266.451 30.1849 267.48 28.0661C268.522 25.9472 269.966 24.3018 271.813 23.13C273.671 21.9581 275.832 21.3722 278.294 21.3722C280.756 21.3722 282.91 21.9581 284.757 23.13C286.615 24.3018 288.059 25.9472 289.089 28.0661C290.131 30.1849 290.652 32.6648 290.652 35.5057C290.652 38.3229 290.131 40.785 289.089 42.892C288.059 44.9991 286.615 46.6385 284.757 47.8104C282.91 48.9822 280.756 49.5682 278.294 49.5682ZM278.294 45.804C280.164 45.804 281.703 45.3246 282.91 44.3658C284.118 43.407 285.011 42.1463 285.591 40.5838C286.171 39.0213 286.461 37.3286 286.461 35.5057C286.461 33.6828 286.171 31.9841 285.591 30.4098C285.011 28.8355 284.118 27.563 282.91 26.5923C281.703 25.6217 280.164 25.1364 278.294 25.1364C276.423 25.1364 274.885 25.6217 273.677 26.5923C272.47 27.563 271.576 28.8355 270.996 30.4098C270.416 31.9841 270.126 33.6828 270.126 35.5057C270.126 37.3286 270.416 39.0213 270.996 40.5838C271.576 42.1463 272.47 43.407 273.677 44.3658C274.885 45.3246 276.423 45.804 278.294 45.804ZM302.299 49L293.99 21.7273H298.393L304.288 42.608H304.572L310.396 21.7273H314.87L320.623 42.5369H320.907L326.802 21.7273H331.206L322.896 49H318.777L312.811 28.0483H312.385L306.419 49H302.299Z" fill="url(#paint0_linear_45_2)"/>
</g>
<defs>
<linearGradient id="paint0_linear_45_2" x1="49" y1="35.5" x2="308" y2="34" gradientUnits="userSpaceOnUse">
<stop stop-color="#FE3156"/>
<stop offset="0.453664" stop-color="#4E19B4"/>
<stop offset="1" stop-color="#50DEF6"/>
</linearGradient>
<clipPath id="clip0_45_2">
<rect width="333" height="61" fill="white"/>
</clipPath>
</defs>
</svg>
